<?xml version="1.0" encoding="UTF-8" standalone="no"?><svg xmlns="http://www.w3.org/2000/svg" xmlns:xlink="http://www.w3.org/1999/xlink" clip-rule="evenodd" stroke-miterlimit="10" viewBox="0 0 210 11"><desc>SVG generated by Keynote</desc><defs></defs><g transform="matrix(1.00, 0.00, -0.00, -1.00, 0.0, 11.0)"><text xml:space="preserve" font-family="Helvetica-Light,Helvetica" font-size="8.0" fill="#000000" transform="matrix(1.00, 0.00, -0.00, -1.00, 2.0, 3.4)">A</text><text xml:space="preserve" font-family="Helvetica-Light,Helvetica" font-size="8.0" fill="#000000" transform="matrix(1.00, 0.00, -0.00, -1.00, 7.3, 3.4)"> </text><text xml:space="preserve" font-family="Helvetica-Light,Helvetica" font-size="8.0" fill="#000000" transform="matrix(1.00, 0.00, -0.00, -1.00, 9.6, 3.4)">p</text><text xml:space="preserve" font-family="Helvetica-Light,Helvetica" font-size="8.0" fill="#000000" transform="matrix(1.00, 0.00, -0.00, -1.00, 14.4, 3.4)">r</text><text xml:space="preserve" font-family="Helvetica-Light,Helvetica" font-size="8.0" fill="#000000" transform="matrix(1.00, 0.00, -0.00, -1.00, 17.0, 3.4)">o</text><text xml:space="preserve" font-family="Helvetica-Light,Helvetica" font-size="8.0" fill="#000000" transform="matrix(1.00, 0.00, -0.00, -1.00, 21.4, 3.4)">g</text><text xml:space="preserve" font-family="Helvetica-Light,Helvetica" font-size="8.0" fill="#000000" transform="matrix(1.00, 0.00, -0.00, -1.00, 26.3, 3.4)">r</text><text xml:space="preserve" font-family="Helvetica-Light,Helvetica" font-size="8.0" fill="#000000" transform="matrix(1.00, 0.00, -0.00, -1.00, 29.0, 3.4)">a</text><text xml:space="preserve" font-family="Helvetica-Light,Helvetica" font-size="8.0" fill="#000000" transform="matrix(1.00, 0.00, -0.00, -1.00, 33.4, 3.4)">m</text><text xml:space="preserve" font-family="Helvetica-Light,Helvetica" font-size="8.0" fill="#000000" transform="matrix(1.00, 0.00, -0.00, -1.00, 40.1, 3.4)"> </text><text xml:space="preserve" font-family="Helvetica-Light,Helvetica" font-size="8.0" fill="#000000" transform="matrix(1.00, 0.00, -0.00, -1.00, 42.3, 3.4)">o</text><text xml:space="preserve" font-family="Helvetica-Light,Helvetica" font-size="8.0" fill="#000000" transform="matrix(1.00, 0.00, -0.00, -1.00, 46.8, 3.4)">f</text><text xml:space="preserve" font-family="Helvetica-Light,Helvetica" font-size="8.0" fill="#000000" transform="matrix(1.00, 0.00, -0.00, -1.00, 49.0, 3.4)"> </text><text xml:space="preserve" font-family="Helvetica-Light,Helvetica" font-size="8.0" fill="#000000" transform="matrix(1.00, 0.00, -0.00, -1.00, 51.2, 3.4)">t</text><text xml:space="preserve" font-family="Helvetica-Light,Helvetica" font-size="8.0" fill="#000000" transform="matrix(1.00, 0.00, -0.00, -1.00, 53.4, 3.4)">h</text><text xml:space="preserve" font-family="Helvetica-Light,Helvetica" font-size="8.0" fill="#000000" transform="matrix(1.00, 0.00, -0.00, -1.00, 57.9, 3.4)">e</text><text xml:space="preserve" font-family="Helvetica-Light,Helvetica" font-size="8.0" fill="#000000" transform="matrix(1.00, 0.00, -0.00, -1.00, 62.3, 3.4)"> </text><text xml:space="preserve" font-family="Helvetica-Light,Helvetica" font-size="8.0" fill="#000000" transform="matrix(1.00, 0.00, -0.00, -1.00, 64.5, 3.4)">U</text><text xml:space="preserve" font-family="Helvetica-Light,Helvetica" font-size="8.0" fill="#000000" transform="matrix(1.00, 0.00, -0.00, -1.00, 70.3, 3.4)">.</text><text xml:space="preserve" font-family="Helvetica-Light,Helvetica" font-size="8.0" fill="#000000" transform="matrix(1.00, 0.00, -0.00, -1.00, 72.5, 3.4)">S</text><text xml:space="preserve" font-family="Helvetica-Light,Helvetica" font-size="8.0" fill="#000000" transform="matrix(1.00, 0.00, -0.00, -1.00, 77.4, 3.4)">.</text><text xml:space="preserve" font-family="Helvetica-Light,Helvetica" font-size="8.0" fill="#000000" transform="matrix(1.00, 0.00, -0.00, -1.00, 79.7, 3.4)"> </text><text xml:space="preserve" font-family="Helvetica-Light,Helvetica" font-size="8.0" fill="#000000" transform="matrix(1.00, 0.00, -0.00, -1.00, 81.9, 3.4)">C</text><text xml:space="preserve" font-family="Helvetica-Light,Helvetica" font-size="8.0" fill="#000000" transform="matrix(1.00, 0.00, -0.00, -1.00, 87.7, 3.4)">h</text><text xml:space="preserve" font-family="Helvetica-Light,Helvetica" font-size="8.0" fill="#000000" transform="matrix(1.00, 0.00, -0.00, -1.00, 92.1, 3.4)">a</text><text xml:space="preserve" font-family="Helvetica-Light,Helvetica" font-size="8.0" fill="#000000" transform="matrix(1.00, 0.00, -0.00, -1.00, 96.6, 3.4)">m</text><text xml:space="preserve" font-family="Helvetica-Light,Helvetica" font-size="8.0" fill="#000000" transform="matrix(1.00, 0.00, -0.00, -1.00, 103.2, 3.4)">b</text><text xml:space="preserve" font-family="Helvetica-Light,Helvetica" font-size="8.0" fill="#000000" transform="matrix(1.00, 0.00, -0.00, -1.00, 108.1, 3.4)">e</text><text xml:space="preserve" font-family="Helvetica-Light,Helvetica" font-size="8.0" fill="#000000" transform="matrix(1.00, 0.00, -0.00, -1.00, 112.6, 3.4)">r</text><text xml:space="preserve" font-family="Helvetica-Light,Helvetica" font-size="8.0" fill="#000000" transform="matrix(1.00, 0.00, -0.00, -1.00, 115.2, 3.4)"> </text><text xml:space="preserve" font-family="Helvetica-Light,Helvetica" font-size="8.0" fill="#000000" transform="matrix(1.00, 0.00, -0.00, -1.00, 117.4, 3.4)">o</text><text xml:space="preserve" font-family="Helvetica-Light,Helvetica" font-size="8.0" fill="#000000" transform="matrix(1.00, 0.00, -0.00, -1.00, 121.9, 3.4)">f</text><text xml:space="preserve" font-family="Helvetica-Light,Helvetica" font-size="8.0" fill="#000000" transform="matrix(1.00, 0.00, -0.00, -1.00, 124.1, 3.4)"> </text><text xml:space="preserve" font-family="Helvetica-Light,Helvetica" font-size="8.0" fill="#000000" transform="matrix(1.00, 0.00, -0.00, -1.00, 126.3, 3.4)">C</text><text xml:space="preserve" font-family="Helvetica-Light,Helvetica" font-size="8.0" fill="#000000" transform="matrix(1.00, 0.00, -0.00, -1.00, 132.1, 3.4)">o</text><text xml:space="preserve" font-family="Helvetica-Light,Helvetica" font-size="8.0" fill="#000000" transform="matrix(1.00, 0.00, -0.00, -1.00, 136.6, 3.4)">m</text><text xml:space="preserve" font-family="Helvetica-Light,Helvetica" font-size="8.0" fill="#000000" transform="matrix(1.00, 0.00, -0.00, -1.00, 143.2, 3.4)">m</text><text xml:space="preserve" font-family="Helvetica-Light,Helvetica" font-size="8.0" fill="#000000" transform="matrix(1.00, 0.00, -0.00, -1.00, 149.9, 3.4)">e</text><text xml:space="preserve" font-family="Helvetica-Light,Helvetica" font-size="8.0" fill="#000000" transform="matrix(1.00, 0.00, -0.00, -1.00, 154.3, 3.4)">r</text><text xml:space="preserve" font-family="Helvetica-Light,Helvetica" font-size="8.0" fill="#000000" transform="matrix(1.00, 0.00, -0.00, -1.00, 156.9, 3.4)">c</text><text xml:space="preserve" font-family="Helvetica-Light,Helvetica" font-size="8.0" fill="#000000" transform="matrix(1.00, 0.00, -0.00, -1.00, 161.3, 3.4)">e</text><text xml:space="preserve" font-family="Helvetica-Light,Helvetica" font-size="8.0" fill="#000000" transform="matrix(1.00, 0.00, -0.00, -1.00, 165.8, 3.4)"> </text><text xml:space="preserve" font-family="Helvetica-Light,Helvetica" font-size="8.0" fill="#000000" transform="matrix(1.00, 0.00, -0.00, -1.00, 168.0, 3.4)">F</text><text xml:space="preserve" font-family="Helvetica-Light,Helvetica" font-size="8.0" fill="#000000" transform="matrix(1.00, 0.00, -0.00, -1.00, 172.4, 3.4)">o</text><text xml:space="preserve" font-family="Helvetica-Light,Helvetica" font-size="8.0" fill="#000000" transform="matrix(1.00, 0.00, -0.00, -1.00, 176.9, 3.4)">u</text><text xml:space="preserve" font-family="Helvetica-Light,Helvetica" font-size="8.0" fill="#000000" transform="matrix(1.00, 0.00, -0.00, -1.00, 181.3, 3.4)">n</text><text xml:space="preserve" font-family="Helvetica-Light,Helvetica" font-size="8.0" fill="#000000" transform="matrix(1.00, 0.00, -0.00, -1.00, 185.8, 3.4)">d</text><text xml:space="preserve" font-family="Helvetica-Light,Helvetica" font-size="8.0" fill="#000000" transform="matrix(1.00, 0.00, -0.00, -1.00, 190.7, 3.4)">a</text><text xml:space="preserve" font-family="Helvetica-Light,Helvetica" font-size="8.0" fill="#000000" transform="matrix(1.00, 0.00, -0.00, -1.00, 195.1, 3.4)">t</text><text xml:space="preserve" font-family="Helvetica-Light,Helvetica" font-size="8.0" fill="#000000" transform="matrix(1.00, 0.00, -0.00, -1.00, 197.3, 3.4)">i</text><text xml:space="preserve" font-family="Helvetica-Light,Helvetica" font-size="8.0" fill="#000000" transform="matrix(1.00, 0.00, -0.00, -1.00, 199.1, 3.4)">o</text><text xml:space="preserve" font-family="Helvetica-Light,Helvetica" font-size="8.0" fill="#000000" transform="matrix(1.00, 0.00, -0.00, -1.00, 203.6, 3.4)">n</text></g></svg>